HIERARCHY
ROOT Hips
{
    OFFSET 0.000000 0.000000 0.000000
    CHANNELS 6 Xposition Yposition Zposition Zrotation Xrotation Yrotation
    JOINT Spine
    {
        OFFSET -0.000000 14.517291 0.000000
        CHANNELS 3 Zrotation Xrotation Yrotation
        JOINT Spine1
        {
            OFFSET -0.000000 37.558300 0.000000
            CHANNELS 3 Zrotation Xrotation Yrotation
            JOINT Neck
            {
                OFFSET -0.000000 37.404057 3.400369
                CHANNELS 3 Zrotation Xrotation Yrotation
                JOINT Head
                {
                    OFFSET -0.000000 24.785618 -3.540803
                    CHANNELS 3 Zrotation Xrotation Yrotation
                    End Site
                    {
                        OFFSET -0.000000 35.408028 0.000000
                    }
                }
            }
            JOINT LeftShoulder
            {
                OFFSET 6.992933 33.973492 -0.192664
                CHANNELS 3 Zrotation Xrotation Yrotation
                JOINT LeftArm
                {
                    OFFSET 21.527611 0.000000 0.000000
                    CHANNELS 3 Zrotation Xrotation Yrotation
                    JOINT LeftForeArm
                    {
                        OFFSET 56.353916 0.000000 0.000000
                        CHANNELS 3 Zrotation Xrotation Yrotation
                        JOINT LeftHand
                        {
                            OFFSET 47.774071 0.000000 0.000000
                            CHANNELS 3 Zrotation Xrotation Yrotation
                            End Site
                            {
                                OFFSET 26.556021 0.000000 0.000000
                            }
                        }
                    }
                }
            }
            JOINT RightShoulder
            {
                OFFSET -7.065357 33.973492 -0.192664
                CHANNELS 3 Zrotation Xrotation Yrotation
                JOINT RightArm
                {
                    OFFSET -21.527611 0.000000 0.000000
                    CHANNELS 3 Zrotation Xrotation Yrotation
                    JOINT RightForeArm
                    {
                        OFFSET -56.353916 0.000000 0.000000
                        CHANNELS 3 Zrotation Xrotation Yrotation
                        JOINT RightHand
                        {
                            OFFSET -47.774071 0.000000 0.000000
                            CHANNELS 3 Zrotation Xrotation Yrotation
                            End Site
                            {
                                OFFSET -26.556021 0.000000 0.000000
                            }
                        }
                    }
                }
            }
        }
    }
    JOINT LeftUpLeg
    {
        OFFSET 17.704014 0.000000 0.000000
        CHANNELS 3 Zrotation Xrotation Yrotation
        JOINT LeftLeg
        {
            OFFSET -0.000000 -81.181816 0.000000
            CHANNELS 3 Zrotation Xrotation Yrotation
            JOINT LeftFoot
            {
                OFFSET -0.000000 -62.821102 0.000000
                CHANNELS 3 Zrotation Xrotation Yrotation
                JOINT LeftToeBase
                {
                    OFFSET -0.000000 -11.507608 26.556021
                    CHANNELS 3 Zrotation Xrotation Yrotation
                    End Site
                    {
                        OFFSET -0.000000 0.000000 7.081605
                    }
                }
            }
        }
    }
    JOINT RightUpLeg
    {
        OFFSET -17.704014 0.000000 0.000000
        CHANNELS 3 Zrotation Xrotation Yrotation
        JOINT RightLeg
        {
            OFFSET -0.000000 -81.181816 0.000000
            CHANNELS 3 Zrotation Xrotation Yrotation
            JOINT RightFoot
            {
                OFFSET -0.000000 -62.821102 0.000000
                CHANNELS 3 Zrotation Xrotation Yrotation
                JOINT RightToeBase
                {
                    OFFSET -0.000000 -11.507608 26.556021
                    CHANNELS 3 Zrotation Xrotation Yrotation
                    End Site
                    {
                        OFFSET -0.000000 0.000000 7.081605
                    }
                }
            }
        }
    }
}
MOTION
Frames:    10
Frame Time:    0.008333
-13.913117    152.097244    -97.676941    1.475425    -6.659175    47.357639    -2.639959    -0.008238    -0.476235    -1.515685    1.736843    -0.137124    -2.018756    5.943910    -20.018398    17.533798    0.497638    -18.334541    0.400237    8.607970    -11.408237    -33.614529    -6.477132    -42.609573    43.689388    -55.745934    -39.312180    -23.289650    -41.261566    -26.430912    1.874050    12.141653    -6.667770    36.192665    17.712284    42.959465    -14.244570    1.087078    30.654655    -27.843622    -4.259393    36.098183    19.906717    -3.652435    -4.729799    -18.893101    41.776726    -20.807112    7.252475    -31.086966    50.362785    0.000000    0.000000    0.000000    -22.943417    -15.745122    -25.312098    10.831648    31.066769    -19.532497    7.493107    6.653181    -8.161852    0.000000    0.000000    0.000000    
-13.911351    152.093369    -97.680786    1.477738    -6.656723    47.354801    -2.648060    -0.004041    -0.485589    -1.510699    1.737803    -0.140191    -2.005356    5.943815    -20.023157    17.523129    0.510248    -18.344191    0.408807    8.618908    -11.434093    -33.617458    -6.335744    -42.783775    43.598755    -55.795746    -39.522594    -23.303381    -41.295460    -26.345921    1.886711    12.148958    -6.671847    36.165169    17.721067    42.961163    -14.264592    1.077262    30.696348    -27.810377    -4.239143    36.071453    19.907564    -3.651631    -4.722819    -18.904140    41.777351    -20.818111    7.270191    -31.080400    50.377453    0.000000    0.000000    0.000000    -22.945839    -15.747296    -25.363234    10.797180    31.074995    -19.527441    7.480848    6.659963    -8.104672    0.000000    0.000000    0.000000    
-13.911382    152.093292    -97.683304    1.471970    -6.657691    47.360382    -2.642443    -0.013871    -0.507112    -1.508353    1.754200    -0.147253    -2.010632    5.947842    -20.028944    17.524500    0.529377    -18.352573    0.401482    8.601768    -11.460512    -33.605305    -6.186533    -42.951015    43.445744    -55.851967    -39.769455    -23.233580    -41.353756    -26.304890    1.876465    12.137503    -6.646226    36.177380    17.716080    42.935005    -14.267179    1.074841    30.740440    -27.831005    -4.238855    36.059834    19.911451    -3.661875    -4.721853    -18.897602    41.788345    -20.811172    7.259951    -31.087431    50.350819    0.000000    0.000000    0.000000    -22.944815    -15.742467    -25.375961    10.794852    31.067865    -19.512312    7.481907    6.664661    -8.101667    0.000000    0.000000    0.000000    
-13.910177    152.089645    -97.687279    1.471989    -6.653292    47.364426    -2.647934    -0.017209    -0.515646    -1.511373    1.756338    -0.149785    -1.982517    5.954400    -20.032135    17.501759    0.540765    -18.363527    0.419718    8.609959    -11.494429    -33.611542    -6.043797    -43.145466    43.269073    -55.922131    -40.073906    -23.196280    -41.423721    -26.198603    1.891659    12.132754    -6.648536    36.145962    17.756428    42.928665    -14.311073    1.037303    30.749193    -27.806707    -4.252892    36.054108    19.908274    -3.666551    -4.717710    -18.895460    41.788765    -20.827465    7.270590    -31.083860    50.360195    0.000000    0.000000    0.000000    -22.954454    -15.744148    -25.393473    10.795740    31.069864    -19.515350    7.471027    6.667346    -8.083888    0.000000    0.000000    0.000000    
-13.911541    152.086868    -97.692299    1.467809    -6.648206    47.374893    -2.652478    -0.025958    -0.527847    -1.510042    1.768393    -0.153734    -1.969211    5.960722    -20.039423    17.503622    0.551498    -18.373987    0.436849    8.592697    -11.531882    -33.616047    -5.888878    -43.333317    43.155655    -55.925312    -40.329609    -23.179377    -41.389732    -26.138189    1.898330    12.127976    -6.654865    36.140797    17.755716    42.926865    -14.316598    1.028642    30.761816    -27.808226    -4.259543    36.056763    19.909864    -3.684431    -4.737552    -18.918213    41.794796    -20.816685    7.277221    -31.089817    50.373882    0.000000    0.000000    0.000000    -22.963055    -15.746553    -25.414221    10.797050    31.071728    -19.519451    7.475485    6.666389    -8.067747    0.000000    0.000000    0.000000    
-13.913539    152.087692    -97.695801    1.460342    -6.643766    47.376137    -2.655356    -0.035202    -0.536952    -1.501836    1.770532    -0.156953    -1.960752    5.946213    -20.035049    17.485622    0.600862    -18.379833    0.444441    8.600460    -11.563892    -33.609707    -5.758305    -43.527203    42.958115    -55.942593    -40.660053    -23.206230    -41.365635    -26.097492    1.898893    12.122029    -6.647397    36.134022    17.767839    42.914257    -14.331963    1.009957    30.771347    -27.810846    -4.273526    36.056747    19.911091    -3.694597    -4.734255    -18.910564    41.795696    -20.830065    7.271632    -31.085190    50.370518    0.000000    0.000000    0.000000    -22.994572    -15.740410    -25.318136    10.940966    31.048908    -19.574230    7.452600    6.662729    -8.164747    0.000000    0.000000    0.000000    
-13.914582    152.089279    -97.701538    1.444149    -6.643728    47.387005    -2.648847    -0.049088    -0.550747    -1.489701    1.774110    -0.161325    -1.955673    5.924074    -20.035887    17.462732    0.662782    -18.393248    0.460647    8.605889    -11.606613    -33.616379    -5.611526    -43.741920    42.861485    -55.942703    -40.906334    -23.276907    -41.294060    -26.135750    1.898451    12.117663    -6.647698    36.129974    17.771202    42.908970    -14.343701    1.002715    30.769188    -27.811232    -4.281713    36.070671    19.921452    -3.718019    -4.747748    -18.919128    41.802677    -20.834946    7.283774    -31.087631    50.396278    0.000000    0.000000    0.000000    -22.964846    -15.767018    -25.401587    10.818839    31.075762    -19.533377    7.477149    6.697344    -8.099501    0.000000    0.000000    0.000000    
-13.916288    152.092346    -97.708405    1.439644    -6.638380    47.391876    -2.654599    -0.053807    -0.558376    -1.485259    1.774100    -0.164180    -1.927890    5.919762    -20.033047    17.435263    0.685969    -18.399988    0.481108    8.619452    -11.644399    -33.596596    -5.424363    -43.961994    42.757130    -56.004734    -41.185295    -23.241505    -41.326126    -26.113916    1.910501    12.121278    -6.651018    36.122711    17.758268    42.911568    -14.338511    1.002918    30.752666    -27.819033    -4.295037    36.096714    19.919270    -3.732521    -4.754779    -18.926006    41.806625    -20.821104    7.268176    -31.096701    50.393864    0.000000    0.000000    0.000000    -23.000263    -15.757263    -25.283958    10.976357    31.045336    -19.597439    7.481575    6.691401    -8.221201    0.000000    0.000000    0.000000    
-13.918599    152.097748    -97.713867    1.437109    -6.636097    47.397610    -2.665900    -0.055563    -0.568603    -1.465569    1.776205    -0.167845    -1.912212    5.912398    -20.029425    17.409351    0.711298    -18.404795    0.495335    8.627051    -11.669176    -33.585968    -5.247648    -44.195332    42.671700    -55.985638    -41.448006    -23.261675    -41.238770    -26.091619    1.907114    12.117253    -6.649858    36.128986    17.750299    42.909737    -14.344424    1.004350    30.741001    -27.808720    -4.295637    36.117313    19.915920    -3.740772    -4.743840    -18.913492    41.807648    -20.821939    7.265125    -31.079741    50.384190    0.000000    0.000000    0.000000    -23.001837    -15.763512    -25.262131    10.985177    31.043203    -19.615204    7.478109    6.709953    -8.228508    0.000000    0.000000    0.000000    
-13.920959    152.101135    -97.719025    1.425732    -6.634875    47.400436    -2.662296    -0.065700    -0.577533    -1.458266    1.779106    -0.170598    -1.910776    5.921135    -20.025938    17.415386    0.725580    -18.402773    0.516094    8.640779    -11.707920    -33.576077    -5.091733    -44.427780    42.533844    -55.993645    -41.778564    -23.238281    -41.192680    -26.055000    1.915110    12.122023    -6.651535    36.119801    17.745724    42.908546    -14.350941    0.992186    30.744095    -27.820137    -4.312217    36.127151    19.924952    -3.752499    -4.739115    -18.919319    41.807270    -20.816822    7.261110    -31.074663    50.373199    0.000000    0.000000    0.000000    -22.998249    -15.774769    -25.230894    11.003051    31.042807    -19.617998    7.504473    6.718193    -8.266134    0.000000    0.000000    0.000000    
